<mxfile host="drawio-plugin" modified="2024-01-03T16:59:13.657Z" agent="5.0 (Windows NT 6.2; Win64; x64) AppleWebKit/537.36 (KHTML, like Gecko) Chrome/104.0.5112.102 Safari/537.36" version="20.5.3" etag="_8ofrZhqe91U_oJ2EnZa" type="embed"><diagram id="bsng60tjKpqr9ttXQa3A" name="Page-1"><mxGraphModel dx="2117" dy="665" grid="1" gridSize="10" guides="1" tooltips="1" connect="1" arrows="1" fold="1" page="1" pageScale="1" pageWidth="850" pageHeight="1100" math="0" shadow="0"><root><mxCell id="0"/><mxCell id="1" parent="0"/><mxCell id="2" value="A" style="ellipse;whiteSpace=wrap;html=1;aspect=fixed;fillColor=#d80073;fontColor=#ffffff;strokeColor=#A50040;fontSize=21;" vertex="1" parent="1"><mxGeometry x="380" width="50" height="50" as="geometry"/></mxCell><mxCell id="13" value="C" style="ellipse;whiteSpace=wrap;html=1;aspect=fixed;fillColor=#1ba1e2;fontColor=#ffffff;strokeColor=#006EAF;fontSize=21;" vertex="1" parent="1"><mxGeometry x="740" y="80" width="30" height="30" as="geometry"/></mxCell><mxCell id="14" value="D" style="ellipse;whiteSpace=wrap;html=1;aspect=fixed;fillColor=#008a00;fontColor=#ffffff;strokeColor=#005700;fontSize=21;" vertex="1" parent="1"><mxGeometry y="180" width="30" height="30" as="geometry"/></mxCell><mxCell id="21" value="G" style="ellipse;whiteSpace=wrap;html=1;aspect=fixed;fillColor=#008a00;fontColor=#ffffff;strokeColor=#005700;fontSize=21;" vertex="1" parent="1"><mxGeometry x="670" y="180" width="30" height="30" as="geometry"/></mxCell><mxCell id="22" value="H" style="ellipse;whiteSpace=wrap;html=1;aspect=fixed;fillColor=#1ba1e2;fontColor=#ffffff;strokeColor=#006EAF;fontSize=21;" vertex="1" parent="1"><mxGeometry x="800" y="180" width="30" height="30" as="geometry"/></mxCell><mxCell id="23" value="&lt;font style=&quot;font-size: 19px;&quot;&gt;B&lt;/font&gt;" style="ellipse;whiteSpace=wrap;html=1;aspect=fixed;fillColor=#008a00;fontColor=#ffffff;strokeColor=#005700;" vertex="1" parent="1"><mxGeometry x="60" y="80" width="30" height="30" as="geometry"/></mxCell><mxCell id="28" value="E" style="ellipse;whiteSpace=wrap;html=1;aspect=fixed;fillColor=#1ba1e2;fontColor=#ffffff;strokeColor=#006EAF;fontSize=21;" vertex="1" parent="1"><mxGeometry x="130" y="180" width="30" height="30" as="geometry"/></mxCell><mxCell id="29" value="" style="endArrow=block;dashed=1;endFill=0;endSize=12;html=1;rounded=0;entryX=1;entryY=0;entryDx=0;entryDy=0;exitX=-0.063;exitY=0.335;exitDx=0;exitDy=0;exitPerimeter=0;" edge="1" parent="1" source="2" target="23"><mxGeometry width="160" relative="1" as="geometry"><mxPoint x="130" y="24.330000000000013" as="sourcePoint"/><mxPoint x="290" y="24.330000000000013" as="targetPoint"/></mxGeometry></mxCell><mxCell id="31" value="" style="endArrow=block;dashed=1;endFill=0;endSize=12;html=1;rounded=0;entryX=0;entryY=0;entryDx=0;entryDy=0;exitX=1;exitY=0.5;exitDx=0;exitDy=0;" edge="1" parent="1" source="2" target="13"><mxGeometry width="160" relative="1" as="geometry"><mxPoint x="470" y="20" as="sourcePoint"/><mxPoint x="590" y="20" as="targetPoint"/></mxGeometry></mxCell><mxCell id="33" value="" style="endArrow=block;dashed=1;endFill=0;endSize=12;html=1;rounded=0;exitX=0.5;exitY=1;exitDx=0;exitDy=0;entryX=1;entryY=0;entryDx=0;entryDy=0;" edge="1" parent="1" source="23" target="14"><mxGeometry width="160" relative="1" as="geometry"><mxPoint x="40" y="330" as="sourcePoint"/><mxPoint x="200" y="330" as="targetPoint"/></mxGeometry></mxCell><mxCell id="34" value="" style="endArrow=block;dashed=1;endFill=0;endSize=12;html=1;rounded=0;entryX=0;entryY=0;entryDx=0;entryDy=0;" edge="1" parent="1" target="28"><mxGeometry width="160" relative="1" as="geometry"><mxPoint x="80" y="110" as="sourcePoint"/><mxPoint x="360" y="340" as="targetPoint"/></mxGeometry></mxCell><mxCell id="39" value="" style="endArrow=block;dashed=1;endFill=0;endSize=12;html=1;rounded=0;exitX=0.5;exitY=1;exitDx=0;exitDy=0;entryX=1;entryY=0;entryDx=0;entryDy=0;" edge="1" parent="1" source="13" target="21"><mxGeometry width="160" relative="1" as="geometry"><mxPoint x="385" y="320" as="sourcePoint"/><mxPoint x="545" y="320" as="targetPoint"/></mxGeometry></mxCell><mxCell id="40" value="" style="endArrow=block;dashed=1;endFill=0;endSize=12;html=1;rounded=0;exitX=1;exitY=1;exitDx=0;exitDy=0;entryX=0;entryY=0;entryDx=0;entryDy=0;" edge="1" parent="1" source="13" target="22"><mxGeometry width="160" relative="1" as="geometry"><mxPoint x="700" y="330" as="sourcePoint"/><mxPoint x="860" y="330" as="targetPoint"/></mxGeometry></mxCell><mxCell id="52" value="I" style="ellipse;whiteSpace=wrap;html=1;aspect=fixed;fillColor=#008a00;fontColor=#ffffff;strokeColor=#005700;fontSize=21;" vertex="1" parent="1"><mxGeometry x="-70" y="260" width="30" height="30" as="geometry"/></mxCell><mxCell id="54" value="" style="endArrow=block;dashed=1;endFill=0;endSize=12;html=1;rounded=0;fontSize=21;entryX=1;entryY=0;entryDx=0;entryDy=0;exitX=0.5;exitY=1;exitDx=0;exitDy=0;" edge="1" parent="1" source="14" target="52"><mxGeometry width="160" relative="1" as="geometry"><mxPoint x="20" y="210" as="sourcePoint"/><mxPoint x="220" y="360" as="targetPoint"/></mxGeometry></mxCell><mxCell id="55" value="J" style="ellipse;whiteSpace=wrap;html=1;aspect=fixed;fillColor=#1ba1e2;fontColor=#ffffff;strokeColor=#006EAF;fontSize=21;" vertex="1" parent="1"><mxGeometry x="30" y="260" width="30" height="30" as="geometry"/></mxCell><mxCell id="56" value="" style="endArrow=block;dashed=1;endFill=0;endSize=12;html=1;rounded=0;fontSize=21;exitX=0.5;exitY=1;exitDx=0;exitDy=0;" edge="1" parent="1" source="14"><mxGeometry width="160" relative="1" as="geometry"><mxPoint x="110" y="240" as="sourcePoint"/><mxPoint x="40" y="260" as="targetPoint"/></mxGeometry></mxCell><mxCell id="58" value="K" style="ellipse;whiteSpace=wrap;html=1;aspect=fixed;fillColor=#008a00;fontColor=#ffffff;strokeColor=#005700;fontSize=21;" vertex="1" parent="1"><mxGeometry x="129" y="259" width="30" height="30" as="geometry"/></mxCell><mxCell id="59" value="" style="endArrow=block;dashed=1;endFill=0;endSize=12;html=1;rounded=0;fontSize=21;exitX=0.5;exitY=1;exitDx=0;exitDy=0;entryX=0.5;entryY=0;entryDx=0;entryDy=0;" edge="1" parent="1" source="28" target="58"><mxGeometry width="160" relative="1" as="geometry"><mxPoint x="80" y="350" as="sourcePoint"/><mxPoint x="240" y="350" as="targetPoint"/></mxGeometry></mxCell><mxCell id="60" value="Y" style="ellipse;whiteSpace=wrap;html=1;aspect=fixed;fillColor=#1ba1e2;fontColor=#ffffff;strokeColor=#006EAF;fontSize=21;" vertex="1" parent="1"><mxGeometry x="240" y="260" width="30" height="30" as="geometry"/></mxCell><mxCell id="61" value="" style="endArrow=block;dashed=1;endFill=0;endSize=12;html=1;rounded=0;fontSize=21;" edge="1" parent="1"><mxGeometry width="160" relative="1" as="geometry"><mxPoint x="150" y="210" as="sourcePoint"/><mxPoint x="250" y="260" as="targetPoint"/></mxGeometry></mxCell><mxCell id="78" value="&lt;div style=&quot;background-color:#2b2b2b;color:#a9b7c6;font-family:'JetBrains Mono',monospace;font-size:9,8pt;&quot;&gt;&lt;pre&gt;BinaryTree tree = &lt;span style=&quot;color:#cc7832;&quot;&gt;new &lt;/span&gt;BinaryTree(&lt;span style=&quot;color:#6a8759;&quot;&gt;'A'&lt;/span&gt;)&lt;span style=&quot;color:#cc7832;&quot;&gt;;&lt;br&gt;&lt;/span&gt;tree.&lt;span style=&quot;color:#9876aa;&quot;&gt;root&lt;/span&gt;.&lt;span style=&quot;color:#9876aa;&quot;&gt;left &lt;/span&gt;= &lt;span style=&quot;color:#cc7832;&quot;&gt;new &lt;/span&gt;Node(&lt;span style=&quot;color:#6a8759;&quot;&gt;'B'&lt;/span&gt;)&lt;span style=&quot;color:#cc7832;&quot;&gt;;&lt;br&gt;&lt;/span&gt;tree.&lt;span style=&quot;color:#9876aa;&quot;&gt;root&lt;/span&gt;.&lt;span style=&quot;color:#9876aa;&quot;&gt;right &lt;/span&gt;= &lt;span style=&quot;color:#cc7832;&quot;&gt;new &lt;/span&gt;Node(&lt;span style=&quot;color:#6a8759;&quot;&gt;'C'&lt;/span&gt;)&lt;span style=&quot;color:#cc7832;&quot;&gt;;&lt;br&gt;&lt;/span&gt;tree.&lt;span style=&quot;color:#9876aa;&quot;&gt;root&lt;/span&gt;.&lt;span style=&quot;color:#9876aa;&quot;&gt;left&lt;/span&gt;.&lt;span style=&quot;color:#9876aa;&quot;&gt;left &lt;/span&gt;= &lt;span style=&quot;color:#cc7832;&quot;&gt;new &lt;/span&gt;Node(&lt;span style=&quot;color:#6a8759;&quot;&gt;'D'&lt;/span&gt;)&lt;span style=&quot;color:#cc7832;&quot;&gt;;&lt;br&gt;&lt;/span&gt;tree.&lt;span style=&quot;color:#9876aa;&quot;&gt;root&lt;/span&gt;.&lt;span style=&quot;color:#9876aa;&quot;&gt;left&lt;/span&gt;.&lt;span style=&quot;color:#9876aa;&quot;&gt;right &lt;/span&gt;= &lt;span style=&quot;color:#cc7832;&quot;&gt;new &lt;/span&gt;Node(&lt;span style=&quot;color:#6a8759;&quot;&gt;'E'&lt;/span&gt;)&lt;span style=&quot;color:#cc7832;&quot;&gt;;&lt;br&gt;&lt;/span&gt;tree.&lt;span style=&quot;color:#9876aa;&quot;&gt;root&lt;/span&gt;.&lt;span style=&quot;color:#9876aa;&quot;&gt;right&lt;/span&gt;.&lt;span style=&quot;color:#9876aa;&quot;&gt;left &lt;/span&gt;= &lt;span style=&quot;color:#cc7832;&quot;&gt;new &lt;/span&gt;Node(&lt;span style=&quot;color:#6a8759;&quot;&gt;'G'&lt;/span&gt;)&lt;span style=&quot;color:#cc7832;&quot;&gt;;&lt;br&gt;&lt;/span&gt;tree.&lt;span style=&quot;color:#9876aa;&quot;&gt;root&lt;/span&gt;.&lt;span style=&quot;color:#9876aa;&quot;&gt;right&lt;/span&gt;.&lt;span style=&quot;color:#9876aa;&quot;&gt;right &lt;/span&gt;= &lt;span style=&quot;color:#cc7832;&quot;&gt;new &lt;/span&gt;Node(&lt;span style=&quot;color:#6a8759;&quot;&gt;'H'&lt;/span&gt;)&lt;span style=&quot;color:#cc7832;&quot;&gt;;&lt;br&gt;&lt;/span&gt;tree.&lt;span style=&quot;color:#9876aa;&quot;&gt;root&lt;/span&gt;.&lt;span style=&quot;color:#9876aa;&quot;&gt;left&lt;/span&gt;.&lt;span style=&quot;color:#9876aa;&quot;&gt;left&lt;/span&gt;.&lt;span style=&quot;color:#9876aa;&quot;&gt;left &lt;/span&gt;= &lt;span style=&quot;color:#cc7832;&quot;&gt;new &lt;/span&gt;Node(&lt;span style=&quot;color:#6a8759;&quot;&gt;'I'&lt;/span&gt;)&lt;span style=&quot;color:#cc7832;&quot;&gt;;&lt;br&gt;&lt;/span&gt;tree.&lt;span style=&quot;color:#9876aa;&quot;&gt;root&lt;/span&gt;.&lt;span style=&quot;color:#9876aa;&quot;&gt;left&lt;/span&gt;.&lt;span style=&quot;color:#9876aa;&quot;&gt;left&lt;/span&gt;.&lt;span style=&quot;color:#9876aa;&quot;&gt;right &lt;/span&gt;= &lt;span style=&quot;color:#cc7832;&quot;&gt;new &lt;/span&gt;Node(&lt;span style=&quot;color:#6a8759;&quot;&gt;'J'&lt;/span&gt;)&lt;span style=&quot;color:#cc7832;&quot;&gt;;&lt;br&gt;&lt;/span&gt;tree.&lt;span style=&quot;color:#9876aa;&quot;&gt;root&lt;/span&gt;.&lt;span style=&quot;color:#9876aa;&quot;&gt;left&lt;/span&gt;.&lt;span style=&quot;color:#9876aa;&quot;&gt;right&lt;/span&gt;.&lt;span style=&quot;color:#9876aa;&quot;&gt;left &lt;/span&gt;= &lt;span style=&quot;color:#cc7832;&quot;&gt;new &lt;/span&gt;Node(&lt;span style=&quot;color:#6a8759;&quot;&gt;'K'&lt;/span&gt;)&lt;span style=&quot;color:#cc7832;&quot;&gt;;&lt;br&gt;&lt;/span&gt;tree.&lt;span style=&quot;color:#9876aa;&quot;&gt;root&lt;/span&gt;.&lt;span style=&quot;color:#9876aa;&quot;&gt;left&lt;/span&gt;.&lt;span style=&quot;color:#9876aa;&quot;&gt;right&lt;/span&gt;.&lt;span style=&quot;color:#9876aa;&quot;&gt;right &lt;/span&gt;= &lt;span style=&quot;color:#cc7832;&quot;&gt;new &lt;/span&gt;Node(&lt;span style=&quot;color:#6a8759;&quot;&gt;'Y'&lt;/span&gt;)&lt;span style=&quot;color:#cc7832;&quot;&gt;;&lt;/span&gt;&lt;/pre&gt;&lt;/div&gt;" style="text;html=1;align=center;verticalAlign=middle;resizable=0;points=[];autosize=1;strokeColor=none;fillColor=none;fontSize=21;" vertex="1" parent="1"><mxGeometry x="-230" y="320" width="520" height="330" as="geometry"/></mxCell><mxCell id="79" value="A&amp;nbsp; &amp;nbsp;B&amp;nbsp; &amp;nbsp;D&amp;nbsp; &amp;nbsp;I&amp;nbsp; &amp;nbsp;J&amp;nbsp; &amp;nbsp;E&amp;nbsp; &amp;nbsp;K&amp;nbsp; &amp;nbsp;Y&amp;nbsp; &amp;nbsp;C&amp;nbsp; &amp;nbsp;G&amp;nbsp; &amp;nbsp;H&amp;nbsp;" style="text;html=1;align=center;verticalAlign=middle;resizable=0;points=[];autosize=1;strokeColor=none;fillColor=none;fontSize=21;" vertex="1" parent="1"><mxGeometry x="325" y="340" width="350" height="40" as="geometry"/></mxCell><mxCell id="80" value="&lt;div style=&quot;background-color:#2b2b2b;color:#a9b7c6;font-family:'JetBrains Mono',monospace;font-size:9,8pt;&quot;&gt;&lt;pre&gt;System.&lt;span style=&quot;color:#9876aa;font-style:italic;&quot;&gt;out&lt;/span&gt;.print(node.&lt;span style=&quot;color:#9876aa;&quot;&gt;data &lt;/span&gt;+ &lt;span style=&quot;color:#6a8759;&quot;&gt;&quot; &quot;&lt;/span&gt;)&lt;span style=&quot;color:#cc7832;&quot;&gt;;&lt;br&gt;&lt;/span&gt;depthTreeTraversal(node.&lt;span style=&quot;color:#9876aa;&quot;&gt;left&lt;/span&gt;)&lt;span style=&quot;color:#cc7832;&quot;&gt;;&lt;br&gt;&lt;/span&gt;depthTreeTraversal(node.&lt;span style=&quot;color:#9876aa;&quot;&gt;right&lt;/span&gt;)&lt;span style=&quot;color:#cc7832;&quot;&gt;;&lt;/span&gt;&lt;/pre&gt;&lt;/div&gt;" style="text;html=1;align=center;verticalAlign=middle;resizable=0;points=[];autosize=1;strokeColor=none;fillColor=none;fontSize=21;" vertex="1" parent="1"><mxGeometry x="300" y="365" width="420" height="130" as="geometry"/></mxCell></root></mxGraphModel></diagram></mxfile>